# xmcd
#
# Track frame offsets:
#	150
#	17712
#	35177
#	50864
#	64390
#	78131
#	94605
#	112823
#	124302
#	142067
#	156379
#	171241
#	185542
#	206350
#	221071
#	235299
#	250391
#	265500
#	285459
#	299799
#
# Disc length: 4191 seconds
#
# Revision: 2
# Processed by: cddbd v1.4PL0 Copyright (c) Steve Scherf et al.
# Submitted via: MusicWizard 6.0.0
#
DISCID=39105d14
DTITLE=Bellamy Brothers - Country Rap  and Rebels Without A Clue
DYEAR=2002
DGENRE=Country
TTITLE0=Too Much Is Not Enough
TTITLE1=Sweet Nostalgia
TTITLE2=Kids Of The Baby Boom
TTITLE3=One Too Many Times
TTITLE4=Go Ahead, Fall In Love
TTITLE5=D D D D Divorcee
TTITLE6=Our Family
TTITLE7=Country Rap
TTITLE8=Hard On A Heart
TTITLE9=Where The Light Comes From
TTITLE10=Rebels WithOut A Clue
TTITLE11=I'll Help You Hurt Him
TTITLE12=The Fountain Of Middle Age
TTITLE13=Stayin' In Love
TTITLE14=Get Your Priorities In Line
TTITLE15=Big Love
TTITLE16=When The Music Meant Everything
TTITLE17=The Courthouse
TTITLE18=The Andy Griffith Show
TTITLE19=A Little Naive
EXTD=Country Rap  MCA Records 1986  and  Rebels Without A Clue  MCA Records 1988
EXTT0=
EXTT1=
EXTT2=
EXTT3=
EXTT4=
EXTT5=
EXTT6=
EXTT7=
EXTT8=
EXTT9=
EXTT10=
EXTT11=
EXTT12=
EXTT13=
EXTT14=
EXTT15=
EXTT16=
EXTT17=
EXTT18=
EXTT19=
PLAYORDER=
